<svg width="14" height="14" viewBox="0 0 14 14" xmlns="http://www.w3.org/2000/svg">
  <path d="M3.45967 9.80969C3.62897 9.80969 3.76622 9.67244 3.76622 9.50313C3.76622 9.33383 3.62897 9.19658 3.45967 9.19658C3.29036 9.19658 3.15311 9.33383 3.15311 9.50313C3.15311 9.67244 3.29036 9.80969 3.45967 9.80969Z" fill="currentColor"/>
  <path d="M5.43036 9.50313C5.43036 9.67244 5.29311 9.80969 5.12381 9.80969C4.95451 9.80969 4.81726 9.67244 4.81726 9.50313C4.81726 9.33383 4.95451 9.19658 5.12381 9.19658C5.29311 9.19658 5.43036 9.33383 5.43036 9.50313Z" fill="currentColor"/>
  <path d="M6.87554 9.80969C7.04484 9.80969 7.18209 9.67244 7.18209 9.50313C7.18209 9.33383 7.04484 9.19658 6.87554 9.19658C6.70623 9.19658 6.56899 9.33383 6.56899 9.50313C6.56899 9.67244 6.70623 9.80969 6.87554 9.80969Z" fill="currentColor"/>
  <path fill-rule="evenodd" clip-rule="evenodd" d="M6.12224 5.37675C6.42301 5.11192 6.61278 4.72399 6.61278 4.29174C6.61278 3.49359 5.96575 2.84656 5.1676 2.84656C4.36945 2.84656 3.72243 3.49359 3.72243 4.29174C3.72243 4.72399 3.9122 5.11192 4.21297 5.37675C3.43212 5.7378 2.89035 6.52806 2.89035 7.44485C2.89035 7.56501 2.89966 7.68299 2.91759 7.79812C2.94179 7.95349 3.0826 8.05796 3.23985 8.05796H7.09536C7.2526 8.05796 7.39342 7.95349 7.41761 7.79812C7.43555 7.68299 7.44485 7.56501 7.44485 7.44485C7.44485 6.52806 6.90309 5.7378 6.12224 5.37675ZM6.04347 4.29174C6.04347 4.77546 5.65133 5.1676 5.1676 5.1676C4.68388 5.1676 4.29174 4.77546 4.29174 4.29174C4.29174 3.80801 4.68388 3.41587 5.1676 3.41587C5.65133 3.41587 6.04347 3.80801 6.04347 4.29174ZM5.1676 5.73691C4.22434 5.73691 3.45967 6.50158 3.45967 7.44485C3.45967 7.4595 3.45985 7.4741 3.46021 7.48864H6.87499C6.87536 7.4741 6.87554 7.4595 6.87554 7.44485C6.87554 6.50158 6.11087 5.73691 5.1676 5.73691Z" fill="currentColor"/>
  <path d="M3.41587 10.9264C3.25866 10.9264 3.13122 11.0539 3.13122 11.2111C3.13122 11.3683 3.25866 11.4957 3.41587 11.4957H6.91933C7.07654 11.4957 7.20399 11.3683 7.20399 11.2111C7.20399 11.0539 7.07654 10.9264 6.91933 10.9264H3.41587Z" fill="currentColor"/>
  <path d="M10.5737 11.2639L9.85929 10.5648C9.74692 10.4549 9.74497 10.2746 9.85492 10.1623C9.96488 10.0499 10.1451 10.048 10.2575 10.1579L10.771 10.6604L11.7981 9.6333C11.9092 9.52213 12.0895 9.52213 12.2006 9.6333C12.3118 9.74446 12.3118 9.9247 12.2006 10.0359L10.9747 11.2618C10.8646 11.3723 10.6858 11.3736 10.574 11.2642L10.5737 11.2639Z" fill="currentColor"/>
  <path fill-rule="evenodd" clip-rule="evenodd" d="M10.3352 7.10209V3.16685C10.3352 3.07393 10.2983 2.98482 10.2326 2.91912L7.41609 0.102614C7.35038 0.0369113 7.26127 0 7.16835 0H1.13862C0.50978 0 0 0.509779 0 1.13862V12.0869C0 12.7158 0.509779 13.2256 1.13862 13.2256H9.19658C9.37895 13.2256 9.5513 13.1827 9.70411 13.1065C9.8447 13.2376 9.99367 13.3601 10.1503 13.4734L10.7205 13.8856C10.9349 14.0405 11.2245 14.0405 11.4389 13.8856L12.0091 13.4734C12.5931 13.0512 13.0708 12.4989 13.4043 11.8601L13.435 11.8015C13.7582 11.1826 13.9347 10.4977 13.9511 9.79969L14 7.70761C12.8434 7.16993 11.5754 6.96809 10.3352 7.10209ZM9.19658 12.6562C9.22384 12.6562 9.25064 12.6543 9.27688 12.6506C9.0771 12.4064 8.90207 12.1417 8.75505 11.8601L8.72442 11.8015C8.40122 11.1826 8.22464 10.4977 8.20831 9.79969L8.15938 7.70761C8.67675 7.4671 9.21641 7.29378 9.76589 7.18767V3.43777H8.05796C7.41702 3.43777 6.89744 2.91819 6.89744 2.27725V0.569312H1.13862C0.824202 0.569312 0.569312 0.824202 0.569312 1.13862V12.0869C0.569312 12.4014 0.824202 12.6562 1.13862 12.6562H9.19658ZM7.46675 0.958405L9.3768 2.86846H8.05796C7.73144 2.86846 7.46675 2.60376 7.46675 2.27725V0.958405ZM8.73752 8.0784L8.77747 9.78638C8.79175 10.3971 8.94626 10.9964 9.22906 11.538L9.25969 11.5966C9.55235 12.157 9.97145 12.6416 10.4838 13.012L11.054 13.4242C11.0693 13.4353 11.09 13.4353 11.1053 13.4242L11.6756 13.012C12.1879 12.6416 12.607 12.157 12.8997 11.5966L12.9303 11.538C13.2131 10.9964 13.3676 10.3971 13.3819 9.78638L13.4219 8.0784C11.9177 7.48227 10.2417 7.48227 8.73752 8.0784Z" fill="currentColor"/>
</svg>
