<svg width="106" height="20" viewBox="0 0 106 20" fill="none" xmlns="http://www.w3.org/2000/svg">
  <path fill="currentColor" fill-rule="evenodd" clip-rule="evenodd" d="M17.7728 0H17.7834C23.2908 0.00850883 27.7664 4.48628 27.7664 10C27.7664 15.5137 23.2801 20 17.7664 20C15.0585 20 12.6016 18.9172 10.7998 17.1644C9.84684 17.5643 8.81727 17.7771 7.77707 17.7771C3.48862 17.7771 0 14.2884 0 10C0 5.71155 3.48862 2.22293 7.77707 2.22293C8.83429 2.22293 9.8596 2.4314 10.8083 2.83344C12.6654 1.02957 15.1521 0.00425441 17.7622 0H17.7728ZM9.98936 10.0021C9.98936 14.2906 13.478 17.7792 17.7664 17.7792L17.7686 17.7771C22.057 17.7771 25.5456 14.2863 25.5456 10C25.5456 5.71368 22.0591 2.22506 17.7728 2.22293C15.9328 2.22506 14.1693 2.87598 12.7781 4.04382C14.548 5.52648 15.5563 7.67496 15.5563 10.0021H13.3333C13.3333 8.23867 12.5229 6.61774 11.1104 5.55626C10.1425 4.82876 8.98957 4.44586 7.77707 4.44586C4.71389 4.44586 2.2208 6.93895 2.2208 10.0021C2.2208 13.0653 4.71389 15.5584 7.77707 15.5584C8.30036 15.5584 8.81727 15.4818 9.31504 15.3393C8.33652 13.7928 7.76643 11.9634 7.76643 10.0021H9.98936ZM33.1673 11.0955C33.1673 13.841 35.0935 15.768 37.8025 15.769C39.6925 15.7683 41.0744 14.858 41.8186 13.4588L40.0914 12.6399C39.583 13.4227 38.9831 13.9864 37.8195 13.9864C36.4921 13.9864 35.3477 13.0228 35.2562 11.7316H42.1122C42.1313 11.4763 42.1313 11.2593 42.1313 11.0955C42.1313 8.42162 40.2573 6.42205 37.694 6.42205C35.1307 6.42205 33.1673 8.3493 33.1673 11.0955ZM35.2775 10.2042C35.4243 9.18529 36.4049 8.14934 37.66 8.14934C38.9512 8.14934 39.8978 9.02149 40.0424 10.2042H35.2775ZM46.6538 12.8249L49.0533 6.64329H51.2358L47.5621 15.5542H45.7072L42.0335 6.64329H44.2692L46.6516 12.8249H46.6538ZM55.7582 15.7711C58.4853 15.7711 60.504 13.7162 60.504 11.0976C60.504 8.47906 58.4853 6.42418 55.7582 6.42418C53.0311 6.42418 51.0124 8.47906 51.0124 11.0976C51.0124 13.7162 53.0311 15.7711 55.7582 15.7711ZM55.7582 13.8439C54.267 13.8439 53.1035 12.625 53.1035 11.0976C53.1035 9.57032 54.267 8.35143 55.7582 8.35143C57.2494 8.35143 58.413 9.57032 58.413 11.0976C58.413 12.625 57.2494 13.8439 55.7582 13.8439ZM61.774 15.552V2.82283H63.8842V15.552H61.774ZM65.5115 6.64116V11.7145H65.5157C65.5157 14.2778 67.0069 15.769 69.4787 15.769C71.9505 15.769 73.4417 14.2778 73.4417 11.7145V6.64116H71.3315V11.5869C71.3315 12.9866 70.6402 13.8226 69.4766 13.8226C68.313 13.8226 67.6217 12.9866 67.6217 11.5869V6.64116H65.5115ZM79.3117 6.42418C80.2026 6.42435 80.9829 6.64344 81.6931 7.06021V9.15126C80.9848 8.62371 80.2573 8.35143 79.4936 8.35143C77.911 8.35143 76.7304 9.55117 76.7304 11.0976C76.7304 12.6441 77.894 13.8439 79.4936 13.8439C80.3487 13.8439 81.0933 13.4801 81.7293 13.044V15.1351C80.9848 15.5541 80.1658 15.7711 79.2937 15.7711C76.5304 15.7711 74.6032 13.8077 74.6032 11.0976C74.6032 8.38794 76.549 6.42469 79.3117 6.42418ZM82.8269 4.04174C82.8269 4.7501 83.4098 5.33295 84.1181 5.33295C84.8648 5.33295 85.4285 4.7501 85.4285 4.04174C85.4285 3.33338 84.8627 2.73351 84.1181 2.73351C83.4098 2.73351 82.8269 3.33338 82.8269 4.04174ZM85.1902 15.5521V6.64118H83.0801V15.5521H85.1902ZM95.8135 11.0977C95.8135 13.7163 93.7948 15.7711 91.0677 15.7711C88.3406 15.7711 86.3219 13.7163 86.3219 11.0977C86.3219 8.47907 88.3406 6.42419 91.0677 6.42419C93.7948 6.42419 95.8135 8.47907 95.8135 11.0977ZM88.413 11.0977C88.413 12.625 89.5765 13.8439 91.0677 13.8439C92.5589 13.8439 93.7225 12.625 93.7225 11.0977C93.7225 9.57032 92.5589 8.35143 91.0677 8.35143C89.5765 8.35143 88.413 9.57032 88.413 11.0977ZM94.1224 2.49736L91.9228 5.09681H90.0679L91.8144 2.49736H94.1224ZM99.0937 6.64115H96.9835H96.9814V15.5499H99.0915V10.8594C99.0915 9.33207 99.8914 8.36844 101.183 8.36844C102.474 8.36844 103.165 9.20444 103.165 10.5871V15.552H105.275V10.1872C105.275 7.86004 104.003 6.42418 101.821 6.42418C100.566 6.42418 99.6574 6.96874 99.0937 7.82388V6.64115Z"/>
</svg>
