<svg width="67" height="20" viewBox="0 0 67 20" xmlns="http://www.w3.org/2000/svg">
  <g clip-path="url(#clip0_88_16564)">
    <path fill="currentColor" fill-rule="evenodd" clip-rule="evenodd" d="M17.7835 0H17.7728H17.7622C15.1521 0.00425441 12.6654 1.02957 10.8083 2.83344C9.8596 2.4314 8.83429 2.22293 7.77707 2.22293C3.48862 2.22293 0 5.71155 0 10C0 14.2884 3.48862 17.7771 7.77707 17.7771C8.81727 17.7771 9.84684 17.5644 10.7998 17.1644C12.6016 18.9173 15.0585 20 17.7664 20C23.2802 20 27.7664 15.5137 27.7664 10C27.7664 4.48628 23.2908 0.00850883 17.7835 0ZM17.7664 17.7792C13.478 17.7792 9.98936 14.2906 9.98936 10.0021H7.76643C7.76643 11.9634 8.33652 13.7928 9.31504 15.3393C8.81727 15.4818 8.30036 15.5584 7.77707 15.5584C4.71389 15.5584 2.2208 13.0653 2.2208 10.0021C2.2208 6.93895 4.71389 4.44586 7.77707 4.44586C8.98958 4.44586 10.1425 4.82876 11.1104 5.55626C12.5229 6.61774 13.3333 8.23867 13.3333 10.0021H15.5563C15.5563 7.67496 14.548 5.52648 12.7781 4.04382C14.1693 2.87598 15.9328 2.22506 17.7728 2.22293C22.0591 2.22506 25.5456 5.71368 25.5456 10C25.5456 14.2863 22.057 17.7771 17.7686 17.7771L17.7664 17.7792ZM33.3801 6.66028H35.4839V7.84089C36.0476 6.98787 36.9538 6.44331 38.2068 6.44331C40.385 6.44331 41.6571 7.87705 41.6571 10.2021V15.5584H39.5512V10.602C39.5512 9.22144 38.8619 8.38758 37.5729 8.38758C36.2838 8.38758 35.4861 9.34907 35.4861 10.8743V15.5584H33.3801V6.66028ZM42.8037 11.1083C42.8037 13.8481 44.7267 15.7732 47.4325 15.7732C49.3214 15.7732 50.6999 14.8649 51.4444 13.4673L49.7192 12.6505C49.2108 13.4312 48.6109 13.9949 47.4495 13.9949C46.1242 13.9949 44.9819 13.0334 44.8904 11.7443H51.7337C51.7528 11.489 51.7528 11.2721 51.7528 11.1083C51.7528 8.44076 49.883 6.44331 47.324 6.44331C44.7649 6.44331 42.8037 8.36843 42.8037 11.1083ZM44.9096 10.217C45.0542 9.20017 46.0349 8.16635 47.2878 8.16635C48.5769 8.16635 49.5214 9.03638 49.666 10.217H44.9096ZM51.5848 15.5435L54.8883 11.0232L51.7294 6.64752H54.1438L56.1413 9.49798L58.1557 6.64752H60.5339L57.3559 10.9679L60.6594 15.5435H58.2259L56.0838 12.4931L53.9226 15.5435H51.5848ZM61.2189 6.66029V8.43863H62.725V15.5541H64.8309V8.43863H66.337V6.66029H64.8309V4.02893H62.725V6.66029H61.2189Z" fill="#000519"/>
  </g>
  <defs>
  <clipPath id="clip0_88_16564">
    <rect width="66.337" height="20" fill="currentColor"/>
    </clipPath>
  </defs>
</svg>
