<svg fill="none" height="14" viewBox="0 0 61 14" width="61" xmlns="http://www.w3.org/2000/svg">
  <g fill="#5e5e5e">
    <path d="m23.3367.232042h-3.7138c-.5225 0-.933.409905-.933.932958v11.8055c0 .5235.411.9334.933.9334.5236 0 .933-.4104.933-.9334v-4.65197h2.7803c2.4409 0 3.9576-1.55373 3.9576-4.05327.0005-2.48772-1.5162-4.033218-3.9571-4.033218zm2.0722 4.033218c0 1.46372-.8255 2.30256-2.264 2.30256h-2.5885v-4.58507h2.5885c1.4591 0 2.264.81004 2.264 2.28251z"/>
    <path d="m35.8872 8.21299c0-.67271-.1898-4.03373-3.9566-4.03373-2.698 0-4.2446 1.78723-4.2446 4.90189 0 3.21805 1.5347 4.91885 4.4365 4.91885 1.9456 0 3.0097-.9664 3.2026-1.1608.1527-.1522.2942-.3348.2942-.6393 0-.4608-.3755-.8368-.8379-.8368-.2391 0-.3728.0762-.5132.1713-.5215.3904-1.1161.773-2.1457.773-1.544 0-2.5181-.9643-2.6189-2.58337h5.336c1.0476 0 1.0476-.98284 1.0476-1.51104zm-3.9566-2.35965c1.3912 0 2.1046.73186 2.1807 2.23622h-4.5882c.1909-1.44264 1.0436-2.23622 2.4075-2.23622z"/>
    <path d="m42.3696 4.21794c-1.0908-.00052-1.8865.37544-2.4481.92267-.2011-.5894-.431-.8517-.845-.84501-.5015.00771-.8939.39293-.8939.8949v7.819c0 .5015.3929.8944.8939.8944.5009 0 .8949-.3934.8949-.8944v-4.31553c0-1.73271.8738-2.72584 2.3977-2.72584.484 0 .8759-.39242.8759-.87432.0005-.48294-.3513-.87536-.8754-.87587z"/>
    <path d="m48.6359 0c-2.6621 0-3.611 1.85614-3.611 3.59142v9.41808c0 .5014.394.8943.8949.8943.5025 0 .8949-.3934.8949-.8943v-6.84756h1.4745c.4794 0 .8558-.37648.8558-.8553 0-.48139-.3764-.85735-.8558-.85735h-1.4745v-.85787c0-1.24617.6125-1.87826 1.8212-1.87826.4793 0 .8558-.37544.8558-.856835 0-.479851-.377-.856325-.8558-.856325z"/>
    <path d="m52.4969.982411c-.6522 0-1.0096.373389-1.0096 1.048159 0 .62437.3857 1.01216 1.0096 1.01216.6228 0 1.0106-.38727 1.0106-1.01216 0-.67477-.3595-1.048159-1.0106-1.048159z"/>
    <path d="m52.4969 4.29554c-.5024 0-.8948.39293-.8948.89489v7.81907c0 .5014.3929.8944.8948.8944.5015 0 .8939-.3935.8939-.8944v-7.81907c.0005-.50196-.3924-.89489-.8939-.89489z"/>
    <path d="m59.5652 12.1907c-.5416 0-.8389-.3513-.8389-.9937v-5.03556h.9736c.4804 0 .8568-.37648.8568-.8553 0-.48139-.3764-.85735-.8568-.85735h-.9736v-1.743c0-.49374-.3996-.89541-.8949-.89541-.4762 0-.8949.41865-.8949.89541v8.49181c0 1.6442 1.0317 2.7068 2.6287 2.7068.4901 0 .8758-.377.8758-.8564 0-.4803-.3857-.8573-.8758-.8573z"/>
    <path d="m10.9076 7.97481v4.12989c0 .0319-.0252.0556-.056.0556h-8.60287c-.03137 0-.05606-.0242-.05606-.0556v-4.16487l-1.491498-.99364v5.15801c0 .8522.694318 1.5476 1.548068 1.5476h8.60286c.8527 0 1.5481-.6954 1.5481-1.5476v-5.1287z"/>
  </g>
  <path d="m13.0202.595143c-.1168-.216525-.3425-.352302-.5894-.352302-.1106 0-.2191.028287-.3163.080232l-5.59569 3.009737-5.533451-2.967049c-.09669-.051431-.205724-.079204-.315272-.079204-.246354 0-.473165.135778-.5904271.352816-.1722936.320929-.0540024.722087.2638411.900557l5.843069 3.89795.01594.0108c.09669.05194.20573.07869.31733.07869.10955 0 .2191-.02675.3163-.07972l5.92176-3.95144c.3173-.17743.4361-.579624.2623-.901067z" fill="#35bfe4"/>
  <path d="m13.02 4.26161c-.1167-.21807-.3425-.35231-.5894-.35231-.1105 0-.219.02675-.3163.07921l-5.59512 3.00974-5.533973-2.96706c-.09669-.05143-.205724-.07868-.315272-.07868-.246354 0-.473164.13474-.5904268.35333-.08331815.15686-.1023476.33738-.051431.50916.051431.16767.1625218.30499.3152718.39088l5.843071 3.89949.01594.00926c.09669.05246.20573.08023.31733.08023.10955 0 .21807-.02931.3163-.08023l5.92181-3.95144c.3173-.17898.4361-.57911.2622-.90158z" fill="#a7c855"/>
</svg>