<svg width="14" height="14" viewBox="0 0 16 16" xmlns="http://www.w3.org/2000/svg">
  <path fill="currentColor" d="M7.9967 0.0250549C3.57382 0.0250549 0 3.60548 0 8.02177C0 11.4113 2.10613 14.3072 5.08102 15.4722C5.00864 14.8404 4.94941 13.8663 5.10736 13.1752C5.25216 12.5499 6.04195 9.19988 6.04195 9.19988C6.04195 9.19988 5.80502 8.7194 5.80502 8.01518C5.80502 6.90289 6.45002 6.07358 7.25299 6.07358C7.93747 6.07358 8.26656 6.58696 8.26656 7.19905C8.26656 7.88356 7.83216 8.91028 7.60182 9.86462C7.41094 10.661 8.0033 11.3126 8.7865 11.3126C10.2082 11.3126 11.3007 9.81198 11.3007 7.6532C11.3007 5.73793 9.92512 4.40187 7.95722 4.40187C5.67997 4.40187 4.3439 6.10651 4.3439 7.87038C4.3439 8.55489 4.60717 9.29201 4.93626 9.69352C5.00205 9.77249 5.00864 9.84488 4.9889 9.92385C4.92966 10.174 4.79146 10.7202 4.76512 10.8321C4.73222 10.9769 4.64666 11.0098 4.49526 10.9375C3.50803 10.4636 2.88935 9.00244 2.88935 7.83089C2.88935 5.31012 4.71904 2.99338 8.1744 2.99338C10.9453 2.99338 13.1041 4.96788 13.1041 7.61371C13.1041 10.3714 11.3665 12.5894 8.95763 12.5894C8.1481 12.5894 7.38461 12.1682 7.12794 11.668C7.12794 11.668 6.72646 13.195 6.62771 13.5701C6.45002 14.2678 5.96298 15.1365 5.63389 15.6696C6.38419 15.9 7.17402 16.0251 8.0033 16.0251C12.4196 16.0251 16 12.4446 16 8.02833C15.9934 3.60548 12.413 0.0250549 7.9967 0.0250549Z"/>
</svg>
